<mxfile host="drawio-plugin" modified="2022-01-09T07:12:20.319Z" agent="5.0 (Windows NT 6.2; Win64; x64) AppleWebKit/537.36 (KHTML, like Gecko) Chrome/89.0.4389.114 Safari/537.36" etag="w7jbZPuRo0wV0GCt-suJ" version="14.7.4" type="embed"><diagram id="23iRSUPoRavnBvh4doch" name="Page-1"><mxGraphModel dx="1130" dy="743" grid="1" gridSize="10" guides="1" tooltips="1" connect="1" arrows="1" fold="1" page="1" pageScale="1" pageWidth="827" pageHeight="1169" math="0" shadow="0"><root><mxCell id="0"/><mxCell id="1" parent="0"/><mxCell id="2" style="edgeStyle=orthogonalEdgeStyle;rounded=0;orthogonalLoop=1;jettySize=auto;html=1;entryX=0;entryY=0.5;entryDx=0;entryDy=0;" edge="1" parent="1" source="3" target="9"><mxGeometry relative="1" as="geometry"><Array as="points"><mxPoint x="300" y="220"/><mxPoint x="300" y="220"/></Array></mxGeometry></mxCell><mxCell id="3" value="tasks" style="shape=datastore;whiteSpace=wrap;html=1;" vertex="1" parent="1"><mxGeometry x="230" y="210" width="40" height="40" as="geometry"/></mxCell><mxCell id="4" style="edgeStyle=orthogonalEdgeStyle;rounded=0;orthogonalLoop=1;jettySize=auto;html=1;" edge="1" parent="1" source="5" target="7"><mxGeometry relative="1" as="geometry"/></mxCell><mxCell id="5" value="bash" style="rounded=1;whiteSpace=wrap;html=1;strokeColor=#CC0000;" vertex="1" parent="1"><mxGeometry x="90" y="210" width="50" height="20" as="geometry"/></mxCell><mxCell id="6" style="edgeStyle=orthogonalEdgeStyle;rounded=0;orthogonalLoop=1;jettySize=auto;html=1;" edge="1" parent="1" source="7"><mxGeometry relative="1" as="geometry"><mxPoint x="230" y="220" as="targetPoint"/><Array as="points"><mxPoint x="230" y="220"/><mxPoint x="230" y="220"/></Array></mxGeometry></mxCell><mxCell id="7" value="UI" style="rounded=1;whiteSpace=wrap;html=1;" vertex="1" parent="1"><mxGeometry x="160" y="210" width="50" height="20" as="geometry"/></mxCell><mxCell id="8" style="edgeStyle=orthogonalEdgeStyle;rounded=0;orthogonalLoop=1;jettySize=auto;html=1;" edge="1" parent="1" source="9" target="11"><mxGeometry relative="1" as="geometry"/></mxCell><mxCell id="9" value="worker" style="rounded=1;whiteSpace=wrap;html=1;" vertex="1" parent="1"><mxGeometry x="290" y="210" width="50" height="20" as="geometry"/></mxCell><mxCell id="10" style="edgeStyle=orthogonalEdgeStyle;rounded=0;orthogonalLoop=1;jettySize=auto;html=1;entryX=0.033;entryY=0.242;entryDx=0;entryDy=0;entryPerimeter=0;" edge="1" parent="1" source="11" target="13"><mxGeometry relative="1" as="geometry"/></mxCell><mxCell id="11" value="logger" style="rounded=1;whiteSpace=wrap;html=1;" vertex="1" parent="1"><mxGeometry x="360" y="210" width="50" height="20" as="geometry"/></mxCell><mxCell id="12" style="edgeStyle=orthogonalEdgeStyle;rounded=0;orthogonalLoop=1;jettySize=auto;html=1;exitX=0.875;exitY=0.25;exitDx=0;exitDy=0;exitPerimeter=0;" edge="1" parent="1" source="13" target="14"><mxGeometry relative="1" as="geometry"><mxPoint x="551" y="220" as="sourcePoint"/></mxGeometry></mxCell><mxCell id="13" value="&lt;font color=&quot;#00ff00&quot;&gt;LOG&lt;/font&gt;" style="shape=datastore;whiteSpace=wrap;html=1;" vertex="1" parent="1"><mxGeometry x="430" y="210" width="40" height="40" as="geometry"/></mxCell><mxCell id="14" value="report" style="rounded=1;whiteSpace=wrap;html=1;" vertex="1" parent="1"><mxGeometry x="490" y="210" width="50" height="20" as="geometry"/></mxCell><mxCell id="15" value="" style="endArrow=classic;html=1;" edge="1" parent="1"><mxGeometry width="50" height="50" relative="1" as="geometry"><mxPoint x="540" y="220" as="sourcePoint"/><mxPoint x="570" y="190" as="targetPoint"/></mxGeometry></mxCell><mxCell id="16" value="" style="endArrow=classic;html=1;" edge="1" parent="1"><mxGeometry width="50" height="50" relative="1" as="geometry"><mxPoint x="540" y="220" as="sourcePoint"/><mxPoint x="570" y="250" as="targetPoint"/></mxGeometry></mxCell><mxCell id="17" value="doc" style="rounded=1;whiteSpace=wrap;html=1;" vertex="1" parent="1"><mxGeometry x="570" y="250" width="50" height="20" as="geometry"/></mxCell><mxCell id="18" value="html" style="rounded=1;whiteSpace=wrap;html=1;" vertex="1" parent="1"><mxGeometry x="570" y="170" width="50" height="20" as="geometry"/></mxCell><mxCell id="19" value="" style="rounded=1;whiteSpace=wrap;html=1;sketch=0;strokeColor=#CC0000;shadow=0;fillColor=none;" vertex="1" parent="1"><mxGeometry x="360" y="200" width="110" height="60" as="geometry"/></mxCell><mxCell id="20" value="" style="rounded=1;whiteSpace=wrap;html=1;shadow=0;sketch=0;strokeColor=#CC0000;fillColor=none;gradientColor=none;" vertex="1" parent="1"><mxGeometry x="480" y="160" width="150" height="120" as="geometry"/></mxCell></root></mxGraphModel></diagram></mxfile>